<svg xmlns="http://www.w3.org/2000/svg" viewBox="0 0 25 25" width="25" height="25">
	<style>
		tspan { white-space:pre }
		.shp0 { fill: #ffffff } 
	</style>
	<path id="Layer" class="shp0" d="M21.94,20.12c0.28,0.8 0.16,1.83 -0.3,2.77c-0.63,1.28 -1.72,2.06 -2.74,2.06c-0.26,0 -0.52,-0.05 -0.76,-0.17c-0.01,0 -5.63,-3.03 -5.63,-3.03c0,0 -5.62,3.03 -5.63,3.03c-0.24,0.11 -0.5,0.17 -0.77,0.17c-1.01,0 -2.11,-0.79 -2.74,-2.06c-0.46,-0.94 -0.57,-1.98 -0.3,-2.77c0.18,-0.52 0.51,-0.91 0.95,-1.13l0,0l1.68,-0.9l-1.66,-0.9c-0.45,-0.22 -0.78,-0.61 -0.96,-1.14c-0.28,-0.8 -0.16,-1.83 0.3,-2.77c0.62,-1.25 1.68,-2.03 2.67,-2.06c-0.13,-1.58 0.31,-3.13 1.27,-4.44l4.76,-6.48c0.14,-0.19 0.36,-0.3 0.59,-0.3c0.23,0 0.45,0.11 0.59,0.3l4.76,6.48c0.97,1.32 1.41,2.88 1.27,4.48c0.89,0.17 1.8,0.91 2.35,2.03c0.46,0.94 0.57,1.98 0.3,2.77c-0.18,0.52 -0.51,0.92 -0.96,1.14l-1.66,0.9l1.68,0.9l0,0c0.44,0.22 0.77,0.61 0.95,1.13zM16.13,16.37l1.64,0.88l2.52,-1.36c0.01,-0.01 0.02,-0.01 0.03,-0.02c0.1,-0.05 0.18,-0.15 0.23,-0.31c0.12,-0.34 0.12,-0.94 -0.23,-1.65c-0.38,-0.77 -0.94,-1.17 -1.32,-1.24c-0.48,1.52 -1.5,2.83 -2.88,3.68zM8.5,7.64c-0.87,1.18 -1.19,2.62 -0.91,4.05c0.1,0.52 0.28,1.01 0.52,1.47c0,-0.96 0.3,-1.92 0.88,-2.7l3.08,-4.19c0.14,-0.19 0.36,-0.3 0.59,-0.3c0.23,0 0.45,0.11 0.59,0.3l3.08,4.19c0.58,0.79 0.89,1.74 0.88,2.7c0.24,-0.45 0.42,-0.95 0.52,-1.47c0.28,-1.43 -0.04,-2.87 -0.91,-4.05l-4.17,-5.67zM15.71,13.73c0.17,-0.86 -0.03,-1.71 -0.54,-2.42l-2.49,-3.39l-2.49,3.39c-0.52,0.71 -0.71,1.56 -0.54,2.42c0.17,0.86 0.68,1.59 1.43,2.06l1.6,0.99l1.61,-0.99c0.75,-0.46 1.26,-1.19 1.43,-2.06zM6.27,21.5c-0.41,-0.84 -1.04,-1.25 -1.42,-1.25c-0.06,0 -0.12,0.01 -0.16,0.03c-0.1,0.05 -0.18,0.15 -0.23,0.31c-0.12,0.34 -0.12,0.94 0.23,1.65c0.48,0.97 1.24,1.36 1.57,1.22l0.04,-0.02c0.08,-0.05 0.15,-0.15 0.19,-0.29c0.12,-0.34 0.12,-0.94 -0.23,-1.65zM18.62,19.37l-3.93,-2.12l-1.63,1.01c-0.12,0.07 -0.25,0.11 -0.38,0.11c-0.07,0 -0.13,-0.01 -0.2,-0.03c-0.06,-0.02 -0.13,-0.05 -0.19,-0.08l-3.07,-1.89c-1.35,-0.83 -2.37,-2.12 -2.85,-3.61l-0.1,-0.05c-0.33,-0.14 -1.09,0.26 -1.57,1.22c-0.35,0.7 -0.34,1.31 -0.23,1.65c0.05,0.16 0.13,0.26 0.23,0.31c0.01,0.01 0.02,0.01 0.03,0.02l12.26,6.62c0.03,-0.54 0.18,-1.11 0.44,-1.65c0.31,-0.62 0.73,-1.13 1.19,-1.49zM10.97,20.92l-3.72,-2.01l-0.85,0.46c0.47,0.36 0.88,0.86 1.19,1.49c0.27,0.54 0.41,1.11 0.44,1.65zM20.32,22.24c0.35,-0.7 0.35,-1.31 0.23,-1.65c-0.05,-0.16 -0.13,-0.26 -0.23,-0.31c-0.32,-0.15 -1.1,0.24 -1.58,1.21c-0.35,0.7 -0.35,1.31 -0.23,1.65c0.05,0.14 0.11,0.23 0.19,0.29l0.04,0.02c0.33,0.15 1.1,-0.25 1.57,-1.22z" />
</svg>