<svg xmlns="http://www.w3.org/2000/svg" viewBox="0 0 25 25" width="25" height="25">
	<style>
		tspan { white-space:pre }
		.shp0 { fill: #ffffff } 
	</style>
	<path id="Layer" class="shp0" d="M19.39,17.48c0.45,0.7 0.66,1.51 0.6,2.34c-0.06,0.83 -0.37,1.61 -0.91,2.24c-0.54,0.63 -1.26,1.07 -2.07,1.25c-0.29,0.07 -0.57,0.1 -0.86,0.1c-0.53,0 -1.05,-0.11 -1.54,-0.33c-1.91,-0.84 -4.1,-0.85 -6.02,-0.02l-0.05,0.02c-0.76,0.34 -1.59,0.41 -2.4,0.23c-0.81,-0.19 -1.53,-0.62 -2.07,-1.25c-0.54,-0.63 -0.86,-1.41 -0.91,-2.24c-0.06,-0.83 0.15,-1.64 0.6,-2.34l2.71,-4.23c1.12,-1.75 3.03,-2.8 5.12,-2.8c2.08,0 3.99,1.05 5.12,2.8zM18.16,18.27l-2.71,-4.23c-0.85,-1.33 -2.3,-2.13 -3.88,-2.13c-1.58,0 -3.03,0.8 -3.88,2.13l-2.71,4.23c-0.57,0.89 -0.49,2.03 0.19,2.84c0.68,0.8 1.78,1.06 2.74,0.65l0.03,-0.01c1.15,-0.51 2.39,-0.76 3.62,-0.76c1.24,0 2.47,0.25 3.62,0.76c0.97,0.43 2.08,0.17 2.77,-0.63c0.69,-0.81 0.77,-1.95 0.19,-2.84z" />
	<path id="Layer" class="shp0" d="M3.47,13.43c-1.33,0 -2.64,-0.92 -3.2,-2.39c-0.7,-1.84 0.04,-3.84 1.65,-4.46c0.8,-0.31 1.69,-0.24 2.5,0.2c0.77,0.42 1.38,1.13 1.71,2c0.33,0.87 0.36,1.8 0.07,2.63c-0.31,0.87 -0.92,1.52 -1.72,1.83c-0.33,0.13 -0.67,0.19 -1.01,0.19zM3.95,11.88l0,0c0.4,-0.15 0.71,-0.49 0.87,-0.95c0.18,-0.5 0.16,-1.08 -0.05,-1.62c-0.21,-0.54 -0.58,-0.98 -1.05,-1.24c-0.26,-0.14 -0.53,-0.21 -0.79,-0.21c-0.17,0 -0.33,0.03 -0.49,0.09c-0.86,0.33 -1.23,1.49 -0.81,2.57c0.42,1.08 1.46,1.69 2.32,1.36z" />
	<path id="Layer" class="shp0" d="M6.06,5.75c0,-2.31 1.64,-4.18 3.66,-4.18c2.02,0 3.67,1.88 3.67,4.18c0,2.31 -1.64,4.18 -3.67,4.18c-2.02,0 -3.66,-1.88 -3.66,-4.18zM7.53,5.75c0,1.5 0.99,2.72 2.2,2.72c1.21,0 2.2,-1.22 2.2,-2.72c0,-1.5 -0.99,-2.72 -2.2,-2.72c-1.21,0 -2.2,1.22 -2.2,2.72z" />
	<path id="Layer" class="shp0" d="M16.06,10.96c-1.76,-0.59 -2.65,-2.7 -1.99,-4.7c0.32,-0.95 0.93,-1.74 1.74,-2.23c0.84,-0.51 1.79,-0.63 2.66,-0.34c0.87,0.29 1.56,0.96 1.93,1.87c0.35,0.87 0.37,1.88 0.06,2.83c-0.55,1.65 -1.98,2.73 -3.46,2.73c-0.32,0 -0.63,-0.05 -0.94,-0.15zM16.52,9.57c1,0.33 2.14,-0.41 2.55,-1.65c0.21,-0.62 0.2,-1.27 -0.03,-1.82c-0.21,-0.51 -0.57,-0.88 -1.03,-1.03c-0.46,-0.15 -0.97,-0.08 -1.44,0.2c-0.51,0.31 -0.9,0.82 -1.11,1.44c-0.41,1.24 0.06,2.52 1.06,2.85z" />
	<path id="Layer" class="shp0" d="M23.78,10.47c1.39,1.03 1.57,3.16 0.41,4.74c-0.74,1.01 -1.86,1.55 -2.93,1.55c-0.61,0 -1.21,-0.18 -1.72,-0.56c-1.39,-1.03 -1.57,-3.16 -0.41,-4.74c1.17,-1.58 3.25,-2.03 4.65,-1zM23.01,14.34c0.69,-0.93 0.64,-2.14 -0.1,-2.69c-0.25,-0.19 -0.55,-0.27 -0.86,-0.27c-0.62,0 -1.28,0.34 -1.74,0.96c-0.69,0.93 -0.64,2.14 0.1,2.69c0.74,0.55 1.91,0.24 2.6,-0.69z" />
</svg>