<svg xmlns="http://www.w3.org/2000/svg" viewBox="0 0 25 25" width="25" height="25">
	<style>
		tspan { white-space:pre }
		.shp0 { fill: #ffffff } 
	</style>
	<path id="Layer" class="shp0" d="M24.87,13c0.14,0.2 0.17,0.45 0.09,0.67l-1.06,2.93c-0.1,0.29 -0.38,0.48 -0.69,0.48h-2.2l1.69,3.41c0.11,0.23 0.1,0.5 -0.03,0.71c-0.13,0.22 -0.37,0.35 -0.62,0.35h-3.76c-0.28,0 -0.53,-0.16 -0.65,-0.41l-2.02,-4.06h-6.2l-1.99,4.06c-0.12,0.25 -0.38,0.41 -0.66,0.41h-3.76c-0.25,0 -0.49,-0.13 -0.62,-0.35c-0.13,-0.21 -0.15,-0.48 -0.04,-0.71l1.68,-3.41h-2.18c-0.31,0 -0.58,-0.19 -0.69,-0.48l-1.06,-2.93c-0.08,-0.22 -0.05,-0.47 0.09,-0.67c0.14,-0.2 0.36,-0.31 0.6,-0.31h5.4l2.38,-4.84h-3.74c-0.4,0 -0.73,-0.33 -0.73,-0.73v-2.91c0,-0.4 0.33,-0.73 0.73,-0.73h15.4c0.4,0 0.73,0.33 0.73,0.73v2.91c0,0.4 -0.33,0.73 -0.73,0.73h-3.8l2.4,4.84h5.44c0.24,0 0.46,0.12 0.6,0.31zM14.79,7.84l-0.82,0l-0.66,1.31l1.75,3.53h2.13zM12.5,10.8l-0.93,1.88h1.86zM19.49,6.38v-1.45h-13.94v1.45zM7.81,12.69h2.13l2.38,-4.84h-2.13zM7.78,17.08h-2.13l-1.47,3h2.13zM20.87,20.08l-1.49,-3h-2.13l1.49,3zM23.23,14.15h-21.4l0.53,1.46h20.34z" />
</svg>